{"title":"The Smurfs 2 2013 1080p BluRayRip 5.1 FLY635 Eesti keeles FLY635","uid":9194414,"size":4813951691,"categoryP":"video","categoryS":"hd___movies","magnet":"?xt=urn:btih:d78ed311a14c6d44cc86747ed3dd219e5ba74cc1&amp;dn=The+Smurfs+2+2013+1080p+BluRayRip+5.1+FLY635+Eesti+keeles+FLY635&amp;tr=udp%3A%2F%2Ftracker.openbittorrent.com%3A80&amp;tr=udp%3A%2F%2Fopen.demonii.com%3A1337&amp;tr=udp%3A%2F%2Ftracker.coppersurfer.tk%3A6969&amp;tr=udp%3A%2F%2Fexodus.desync.com%3A6969","seeders":7,"leechers":2,"uploader":"FLY635","files":-1,"time":1384454775,"description":"Width                                    : 1 920 pixels\nHeight                                   : 1 036 pixelsFrame rate                                     : 23.976 fps\n\nAudio #1\nID                                       : 2\nFormat                                   : AC-3\nFormat/Info                              : Audio Coding 3\nMode extension                           : CM (complete main)\nFormat settings, Endianness              : Big\nCodec ID                                 : A_AC3\nDuration                                 : 1h 44mn\nBit rate mode                            : Constant\nBit rate                                 : 448 Kbps\nChannel count                            : 6 channels\nChannel positions                        : Front: L C R, Side: L R, LFE\nSampling rate                            : 48.0 KHz\nBit depth                                : 16 bits\nCompression mode                         : Lossy\nStream size                              : 336 MiB (7%)\nLanguage                                 : Estonian\nDefault                                  : Yes\nForced                                   : Yes\n\nAudio #2\nID                                       : 3\nFormat                                   : AC-3\nFormat/Info                              : Audio Coding 3\nMode extension                           : CM (complete main)\nFormat settings, Endianness              : Big\nCodec ID                                 : A_AC3\nDuration                                 : 1h 44mn\nBit rate mode                            : Constant\nBit rate                                 : 448 Kbps\nChannel count                            : 6 channels\nChannel positions                        : Front: L C R, Side: L R, LFE\nSampling rate                            : 48.0 KHz\nBit depth                                : 16 bits\nCompression mode                         : Lossy\nStream size                              : 336 MiB (7%)\nLanguage                                 : English\nDefault                                  : No\nForced                                   : No\n\nAudio #3\nID                                       : 4\nFormat                                   : AC-3\nFormat/Info                              : Audio Coding 3\nMode extension                           : CM (complete main)\nFormat settings, Endianness              : Big\nCodec ID                                 : A_AC3\nDuration                                 : 1h 44mn\nBit rate mode                            : Constant\nBit rate                                 : 448 Kbps\nChannel count                            : 6 channels\nChannel positions                        : Front: L C R, Side: L R, LFE\nSampling rate                            : 48.0 KHz\nBit depth                                : 16 bits\nCompression mode                         : Lossy\nStream size                              : 336 MiB (7%)\nLanguage                                 : Russian\nDefault                                  : No\nForced                                   : No\n\n","torrent":{"xt":"urn:btih:d78ed311a14c6d44cc86747ed3dd219e5ba74cc1","amp;dn":"The+Smurfs+2+2013+1080p+BluRayRip+5.1+FLY635+Eesti+keeles+FLY635","amp;tr":["udp%3A%2F%2Ftracker.openbittorrent.com%3A80","udp%3A%2F%2Fopen.demonii.com%3A1337","udp%3A%2F%2Ftracker.coppersurfer.tk%3A6969","udp%3A%2F%2Fexodus.desync.com%3A6969"],"infoHash":"d78ed311a14c6d44cc86747ed3dd219e5ba74cc1","infoHashBuffer":{"type":"Buffer","data":[215,142,211,17,161,76,109,68,204,134,116,126,211,221,33,158,91,167,76,193]},"announce":[],"urlList":[]}}